<svg width="20" height="20" viewBox="0 0 20 20" fill="none" xmlns="http://www.w3.org/2000/svg">
<path fill-rule="evenodd" clip-rule="evenodd" d="M20 18.8962C20 19.5059 19.5059 20 18.8962 20H13.7997V12.2546H16.3994L16.789 9.23647H13.7997V7.30953C13.7997 6.43567 14.0427 5.83967 15.2957 5.83967L16.8941 5.83912V3.13966C16.6174 3.10261 15.6689 3.02035 14.5651 3.02035C12.2606 3.02035 10.6829 4.42701 10.6829 7.01043V9.23647H8.0766V12.2546H10.6829V20H1.10376C0.49413 20 0 19.5059 0 18.8962V1.10376C0 0.49413 0.49413 0 1.10376 0H18.8962C19.5059 0 20 0.49413 20 1.10376V18.8962Z" fill="#4B4B4B"/>
</svg>
