<svg width="20" height="19" viewBox="0 0 20 19" fill="none" xmlns="http://www.w3.org/2000/svg">
<path fill-rule="evenodd" clip-rule="evenodd" d="M0 2.24123C0 0.965948 0.941719 0 2.38113 0C3.81946 0 4.70371 0.963682 4.73191 2.23783C4.73191 3.48818 3.81946 4.47849 2.35403 4.47849H2.32583C0.915153 4.47849 0 3.49214 0 2.24123ZM15.0529 5.96905C12.8197 5.96905 11.4204 7.233 11.1618 8.1185V6.09312H6.78287C6.83925 7.16841 6.78287 19 6.78287 19H11.1618V12.0157C11.1618 11.9698 11.1616 11.9239 11.1613 11.8782V11.8782C11.1595 11.5369 11.1578 11.2061 11.2573 10.9608C11.5581 10.1847 12.2049 9.37904 13.3679 9.37904C14.8886 9.37904 15.5798 10.5727 15.5798 12.3205V19H20V11.8231C20 7.82559 17.8233 5.96905 15.0529 5.96905ZM0.504202 6.09312H4.40228V19H0.504202V6.09312Z" fill="#4B4B4B"/>
</svg>
