<svg width="40" height="30" viewBox="0 0 40 30" fill="none" xmlns="http://www.w3.org/2000/svg">
<path fill-rule="evenodd" clip-rule="evenodd" d="M37.3333 18.6666V12C37.3333 9.05444 34.9455 6.66663 32 6.66663C29.0545 6.66663 26.6667 9.05444 26.6667 12V18.6666H24V29.3333H40V18.6666H37.3333ZM33.3333 25.3333C33.3333 26.0697 32.7364 26.6666 32 26.6666C31.2636 26.6666 30.6667 26.0697 30.6667 25.3333V22.6666C30.6667 21.9302 31.2636 21.3333 32 21.3333C32.7364 21.3333 33.3333 21.9302 33.3333 22.6666V25.3333ZM29.3333 18.6666H34.6667V12C34.6667 10.5272 33.4728 9.33329 32 9.33329C30.5272 9.33329 29.3333 10.5272 29.3333 12V18.6666Z" fill="#F88822"/>
<path fill-rule="evenodd" clip-rule="evenodd" d="M30.4 0C31.2837 0 32 0.716344 32 1.6V4H0V1.6C0 0.716344 0.716344 0 1.6 0H30.4ZM26.0667 6.66667C24.7386 8.12562 24.0018 10.0271 24 12V16H21.3333V21.3333H1.6C0.716344 21.3333 0 20.617 0 19.7333V6.66667H26.0667ZM5.33333 17.3333H9.6C10.3364 17.3333 10.9333 16.7364 10.9333 16C10.9333 15.2636 10.3364 14.6667 9.6 14.6667H5.33333C4.59695 14.6667 4 15.2636 4 16C4 16.7364 4.59695 17.3333 5.33333 17.3333ZM16 12H5.33333C4.59695 12 4 11.403 4 10.6667C4 9.93029 4.59695 9.33333 5.33333 9.33333H16C16.7364 9.33333 17.3333 9.93029 17.3333 10.6667C17.3333 11.403 16.7364 12 16 12Z" fill="#F88822"/>
</svg>
