<svg width="40" height="32" viewBox="0 0 40 32" fill="none" xmlns="http://www.w3.org/2000/svg">
<path fill-rule="evenodd" clip-rule="evenodd" d="M0 0H40V8H0V0Z" fill="#F88822"/>
<path fill-rule="evenodd" clip-rule="evenodd" d="M2.66666 32.0001V10.6667H37.3333V32.0001H2.66666ZM15.3333 18.6667H24.6667C26.8758 18.6667 28.6667 16.8759 28.6667 14.6667C28.6667 13.9304 28.0697 13.3334 27.3333 13.3334C26.5969 13.3334 26 13.9304 26 14.6667C26 15.4031 25.403 16.0001 24.6667 16.0001H15.3333C14.5969 16.0001 14 15.4031 14 14.6667C14 13.9304 13.403 13.3334 12.6667 13.3334C11.9303 13.3334 11.3333 13.9304 11.3333 14.6667C11.3333 16.8759 13.1242 18.6667 15.3333 18.6667Z" fill="#F88822"/>
</svg>
