<svg width="40" height="32" viewBox="0 0 40 32" fill="none" xmlns="http://www.w3.org/2000/svg">
<path fill-rule="evenodd" clip-rule="evenodd" d="M8 32C10.2091 32 12 30.2091 12 28C12 25.7909 10.2091 24 8 24C5.79086 24 4 25.7909 4 28C4 30.2091 5.79086 32 8 32Z" fill="#F88822"/>
<path fill-rule="evenodd" clip-rule="evenodd" d="M32 32C34.2091 32 36 30.2091 36 28C36 25.7909 34.2091 24 32 24C29.7909 24 28 25.7909 28 28C28 30.2091 29.7909 32 32 32Z" fill="#F88822"/>
<path fill-rule="evenodd" clip-rule="evenodd" d="M8 21.3333C9.44325 21.3285 10.8483 21.7968 12 22.6667H25.3333V0H0V22.6667H4C5.15168 21.7968 6.55675 21.3285 8 21.3333Z" fill="#F88822"/>
<path fill-rule="evenodd" clip-rule="evenodd" d="M40 22.6667V13.3334C40 9.65152 37.0152 6.66675 33.3333 6.66675H28V22.6667C30.3628 20.8664 33.6372 20.8664 36 22.6667H40ZM25.4667 26.6667H14.5333C14.4469 26.2096 14.3128 25.7627 14.1333 25.3334H25.8667C25.6867 25.7625 25.5526 26.2094 25.4667 26.6667ZM40 28.0001H38.6667C38.6759 27.0838 38.4943 26.1756 38.1333 25.3334H40V28.0001ZM1.33333 28.0001H0V25.3334H1.86667C1.5057 26.1756 1.32407 27.0838 1.33333 28.0001Z" fill="#F88822"/>
</svg>
