<svg width="20" height="17" viewBox="0 0 20 17" fill="none" xmlns="http://www.w3.org/2000/svg">
<path fill-rule="evenodd" clip-rule="evenodd" d="M19.4484 0.314815C18.6548 0.805556 17.778 1.16285 16.8408 1.35458C16.0943 0.520697 15.0274 0 13.8462 0C11.582 0 9.74448 1.92157 9.74448 4.29139C9.74448 4.628 9.77972 4.95479 9.85021 5.26906C6.44007 5.08987 3.41708 3.3829 1.39214 0.783769C1.03864 1.41993 0.836782 2.15741 0.836782 2.94336C0.836782 4.43137 1.56089 5.74564 2.66254 6.51525C1.99076 6.49455 1.3569 6.29902 0.802606 5.97985V6.03268C0.802606 8.11275 2.21718 9.84749 4.0958 10.2407C3.7519 10.341 3.38878 10.3916 3.01444 10.3916C2.75011 10.3916 2.49219 10.366 2.24228 10.3154C2.76453 12.0196 4.27896 13.2609 6.07481 13.2941C4.67092 14.4461 2.9007 15.1324 0.978827 15.1324C0.647745 15.1324 0.320402 15.1127 0 15.0735C1.81561 16.2892 3.97351 17 6.29002 17C13.8381 17 17.9644 10.4613 17.9644 4.79031C17.9644 4.60349 17.9612 4.41667 17.9542 4.23366C18.7558 3.62854 19.4521 2.87309 20 2.01253C19.2652 2.35403 18.4738 2.58497 17.644 2.68791C18.4914 2.15741 19.1419 1.31645 19.4484 0.314815Z" fill="#4B4B4B"/>
</svg>
