<svg width="20" height="14" viewBox="0 0 20 14" fill="none" xmlns="http://www.w3.org/2000/svg">
<path fill-rule="evenodd" clip-rule="evenodd" d="M17.8079 0.418353C18.673 0.648385 19.3498 1.32262 19.5836 2.18729C19.9918 3.74706 20 7.00329 20 7.00329C20 7.00329 20 10.2595 19.5836 11.8193C19.3478 12.6814 18.6713 13.3528 17.8079 13.5816C16.2495 14 9.99589 14 9.99589 14C9.99589 14 3.74393 14 2.18547 13.5882C1.32326 13.3563 0.649781 12.6822 0.418004 11.8193C0 10.2595 0 7.00329 0 7.00329C0 7.00329 0 3.74706 0.418004 2.18729C0.649781 1.32437 1.32326 0.650323 2.18547 0.418353C3.74229 0 9.99589 0 9.99589 0C9.99589 0 16.2478 0 17.8079 0.418353ZM12.3831 7.09716L9.51789 4.25203V9.94229L12.3831 7.09716Z" fill="#4B4B4B"/>
</svg>
